<svg xmlns="http://www.w3.org/2000/svg" xmlns:xlink="http://www.w3.org/1999/xlink" width="64" zoomAndPan="magnify" viewBox="0 0 48 48" height="64" preserveAspectRatio="xMidYMid meet" version="1.0"><defs><clipPath id="f030877079"><path d="M 0.488281 23 L 22 23 L 22 43.730469 L 0.488281 43.730469 Z M 0.488281 23 " clip-rule="nonzero"/></clipPath><clipPath id="ddf0987dbd"><path d="M 16 3.320312 L 31 3.320312 L 31 33 L 16 33 Z M 16 3.320312 " clip-rule="nonzero"/></clipPath><clipPath id="dcf977d6e9"><path d="M 26 23 L 47 23 L 47 43.730469 L 26 43.730469 Z M 26 23 " clip-rule="nonzero"/></clipPath></defs><path fill="#66bb6a" d="M 2.023438 24.136719 C 2.023438 24.136719 20.230469 22.890625 20.355469 42.46875 C 0.777344 42.34375 2.023438 24.136719 2.023438 24.136719 Z M 2.023438 24.136719 " fill-opacity="1" fill-rule="nonzero"/><g clip-path="url(#f030877079)"><path fill="#66bb6a" d="M 21.421875 43.535156 L 20.351562 43.527344 C 14.035156 43.488281 9.121094 41.625 5.75 37.988281 C 0.46875 32.300781 0.945312 24.398438 0.96875 24.066406 L 1.03125 23.148438 L 1.953125 23.082031 C 1.953125 23.082031 2.210938 23.0625 2.671875 23.0625 C 5.78125 23.0625 21.296875 24 21.414062 42.460938 Z M 3.074219 25.183594 C 3.136719 27.34375 3.671875 32.648438 7.316406 36.566406 C 10.082031 39.539062 14.101562 41.15625 19.269531 41.382812 C 18.636719 26.871094 7.25 25.273438 3.074219 25.183594 Z M 3.074219 25.183594 " fill-opacity="1" fill-rule="nonzero"/></g><path fill="#66bb6a" d="M 23.710938 4.875 C 23.710938 4.875 37.46875 16.863281 23.710938 30.796875 C 9.957031 16.863281 23.710938 4.875 23.710938 4.875 Z M 23.710938 4.875 " fill-opacity="1" fill-rule="nonzero"/><g clip-path="url(#ddf0987dbd)"><path fill="#66bb6a" d="M 23.710938 32.300781 L 22.960938 31.539062 C 18.519531 27.046875 16.367188 22.253906 16.550781 17.300781 C 16.839844 9.546875 22.765625 4.292969 23.015625 4.074219 L 23.710938 3.46875 L 24.40625 4.074219 C 24.660156 4.292969 30.582031 9.546875 30.871094 17.300781 C 31.058594 22.253906 28.902344 27.046875 24.464844 31.539062 Z M 23.710938 6.359375 C 22.222656 7.929688 18.855469 12.058594 18.664062 17.398438 C 18.519531 21.457031 20.214844 25.445312 23.710938 29.261719 C 27.207031 25.445312 28.902344 21.457031 28.757812 17.398438 C 28.566406 12.058594 25.199219 7.929688 23.710938 6.359375 Z M 23.710938 6.359375 " fill-opacity="1" fill-rule="nonzero"/></g><path fill="#66bb6a" d="M 45.910156 24.136719 C 45.910156 24.136719 27.707031 22.890625 27.578125 42.46875 C 47.160156 42.34375 45.910156 24.136719 45.910156 24.136719 Z M 45.910156 24.136719 " fill-opacity="1" fill-rule="nonzero"/><g clip-path="url(#dcf977d6e9)"><path fill="#66bb6a" d="M 26.515625 43.535156 L 26.523438 42.460938 C 26.640625 24 42.15625 23.0625 45.265625 23.0625 C 45.722656 23.0625 45.984375 23.082031 45.984375 23.082031 L 46.898438 23.148438 L 46.964844 24.066406 C 46.988281 24.398438 47.464844 32.300781 42.183594 37.988281 C 38.8125 41.625 33.902344 43.488281 27.585938 43.527344 Z M 44.863281 25.183594 C 40.6875 25.273438 29.300781 26.867188 28.664062 41.382812 C 33.84375 41.15625 37.867188 39.53125 40.632812 36.550781 C 44.28125 32.621094 44.808594 27.335938 44.863281 25.183594 Z M 44.863281 25.183594 " fill-opacity="1" fill-rule="nonzero"/></g></svg>